<svg xmlns="http://www.w3.org/2000/svg" width="528" height="604" viewBox="0 0 528 604">
<g>
<path d="M 271.00 482.91 C250.18,484.44 213.38,484.86 182.50,483.92 C153.45,483.02 108.25,480.60 107.59,479.90 C107.38,479.68 107.45,379.99 107.76,258.37 L 108.30 37.23 L 126.90 36.54 C137.13,36.16 152.93,35.43 162.00,34.92 C193.44,33.14 243.57,32.63 261.00,33.92 C312.50,37.73 345.46,49.67 368.44,72.86 C377.97,82.48 382.88,89.49 388.50,101.50 C400.31,126.74 404.47,158.19 399.37,183.72 C396.48,198.22 391.12,209.54 376.04,233.00 C371.27,240.43 367.06,247.01 366.70,247.63 C366.30,248.30 369.80,252.00 375.23,256.63 C386.65,266.39 389.85,269.89 397.84,281.38 C404.85,291.48 410.09,301.22 412.08,307.87 C413.28,311.88 413.23,312.36 411.47,313.65 C410.41,314.42 405.37,316.39 400.26,318.03 C379.65,324.63 365.32,320.62 347.00,303.13 C339.02,295.50 328.07,289.32 318.55,287.05 C301.47,282.98 288.70,270.95 281.13,251.79 C278.26,244.52 275.00,234.09 275.00,232.19 C275.00,231.63 278.26,230.64 282.25,229.98 C314.22,224.69 331.30,213.00 342.19,188.95 C346.36,179.74 347.48,173.48 347.43,159.50 C347.38,144.45 345.98,138.03 340.01,125.28 C336.87,118.57 334.54,115.34 328.77,109.66 C314.63,95.74 303.00,91.67 272.27,89.88 C253.36,88.78 170.70,89.30 163.63,90.56 L 159.76 91.25 L 160.26 109.87 C160.67,125.55 161.15,130.02 163.27,138.07 C168.02,156.08 173.93,167.52 188.12,186.16 C192.52,191.94 195.06,194.95 196.54,198.41 C198.79,203.68 198.60,210.00 198.82,228.75 C199.12,254.06 199.02,256.00 197.41,256.00 C195.33,256.00 188.43,252.07 181.32,246.85 C174.75,242.02 163.85,236.00 161.67,236.00 C160.12,236.00 160.00,242.78 160.00,327.85 C160.00,392.33 160.33,420.65 161.11,422.87 C161.71,424.62 163.10,426.52 164.19,427.10 C167.31,428.77 233.47,429.41 268.00,428.11 C322.19,426.05 329.15,424.14 347.83,406.15 C358.77,395.63 361.65,394.50 377.50,394.50 C386.34,394.50 393.80,395.14 400.80,396.48 L 411.10 398.47 L 410.45 402.48 C408.05,417.27 396.04,434.41 374.20,454.20 C357.24,469.57 323.10,479.07 271.00,482.91 ZM 528.00 271.03 L 528.00 577.86 C528.00,555.44 527.78,551.56 526.45,550.59 C525.06,549.57 525.06,549.10 526.45,545.76 C527.84,542.46 528.00,513.21 528.00,271.03 Z" fill="rgb(1,0,100)"/>
<path d="M 345.00 584.00 C292.17,585.33 230.79,584.50 216.50,582.26 L 211.50 581.48 L 210.72 538.53 C210.30,514.91 210.17,495.00 210.44,494.29 C210.83,493.28 216.53,493.00 236.45,493.00 L 261.95 493.00 L 262.50 528.42 L 266.00 529.18 C279.73,532.16 374.73,532.74 402.00,530.00 C432.81,526.91 453.09,513.85 464.90,489.50 C470.24,478.47 472.31,469.58 472.35,457.50 C472.43,429.11 458.33,406.63 432.22,393.52 C424.37,389.57 411.93,387.11 391.50,385.47 C367.23,383.51 357.34,381.91 341.94,377.46 C317.44,370.38 305.20,364.50 286.02,350.59 C274.38,342.15 264.46,336.00 262.49,336.00 C261.23,336.00 260.99,341.55 260.76,375.75 L 260.50 415.50 L 210.50 415.50 L 210.88 277.50 C211.09,201.60 211.46,139.28 211.70,139.01 C211.95,138.74 234.73,138.51 262.32,138.51 C311.39,138.50 328.01,139.33 333.06,142.03 C334.30,142.69 335.54,145.97 337.06,152.54 C342.18,174.69 335.76,186.42 316.00,191.04 C312.90,191.76 300.47,192.58 287.50,192.91 L 264.50 193.50 L 263.36 200.00 C257.78,231.76 271.51,268.60 298.23,293.55 C317.29,311.35 335.48,321.78 357.93,327.75 C370.74,331.17 389.56,331.37 401.14,328.22 C425.52,321.58 443.56,304.14 449.46,281.51 C453.07,267.64 450.83,247.57 443.91,231.79 C437.15,216.39 431.28,209.15 419.91,202.19 C416.93,200.37 413.44,198.01 412.15,196.95 L 409.80 195.01 L 411.58 170.39 L 413.36 145.77 L 421.93 146.22 C428.74,146.57 431.86,147.29 437.10,149.70 C454.44,157.68 471.95,173.83 484.24,193.18 C498.80,216.12 505.91,245.44 503.17,271.25 C500.51,296.36 492.40,317.94 476.85,341.28 L 471.01 350.05 L 482.85 362.34 C500.70,380.87 507.68,391.73 518.31,417.53 C522.53,427.78 522.93,429.52 523.95,442.26 C527.21,483.12 515.56,519.62 491.06,545.32 C481.31,555.54 472.88,561.81 460.00,568.40 C436.83,580.26 423.82,582.02 345.00,584.00 Z" fill="rgb(24,76,86)"/>
<path d="M 0.00 302.00 L 0.00 0.00 L 264.00 0.00 L 528.00 0.00 L 528.00 271.03 C528.00,513.21 527.84,542.46 526.45,545.76 C525.06,549.10 525.06,549.57 526.45,550.59 C527.78,551.56 528.00,555.44 528.00,577.86 L 528.00 604.00 L 264.00 604.00 L 0.00 604.00 L 0.00 302.00 ZM 345.00 584.00 C423.82,582.02 436.83,580.26 460.00,568.40 C472.88,561.81 481.31,555.54 491.06,545.32 C515.56,519.62 527.21,483.12 523.95,442.26 C522.93,429.52 522.53,427.78 518.31,417.53 C507.68,391.73 500.70,380.87 482.85,362.34 L 471.01 350.05 L 476.85 341.28 C492.40,317.94 500.51,296.36 503.17,271.25 C505.91,245.44 498.80,216.12 484.24,193.18 C471.95,173.83 454.44,157.68 437.10,149.70 C431.86,147.29 428.74,146.57 421.93,146.22 L 413.36 145.77 L 411.58 170.39 L 409.80 195.01 L 412.15 196.95 C413.44,198.01 416.93,200.37 419.91,202.19 C431.28,209.15 437.15,216.39 443.91,231.79 C450.83,247.57 453.07,267.64 449.46,281.51 C443.56,304.14 425.52,321.58 401.14,328.22 C389.56,331.37 370.74,331.17 357.93,327.75 C335.48,321.78 317.29,311.35 298.23,293.55 C271.51,268.60 257.78,231.76 263.36,200.00 L 264.50 193.50 L 287.50 192.91 C300.47,192.58 312.90,191.76 316.00,191.04 C335.76,186.42 342.18,174.69 337.06,152.54 C335.54,145.97 334.30,142.69 333.06,142.03 C328.01,139.33 311.39,138.50 262.32,138.51 C234.73,138.51 211.95,138.74 211.70,139.01 C211.46,139.28 211.09,201.60 210.88,277.50 L 210.50 415.50 L 235.50 415.50 L 260.50 415.50 L 260.76 375.75 C260.99,341.55 261.23,336.00 262.49,336.00 C264.46,336.00 274.38,342.15 286.02,350.59 C305.20,364.50 317.44,370.38 341.94,377.46 C357.34,381.91 367.23,383.51 391.50,385.47 C411.93,387.11 424.37,389.57 432.22,393.52 C458.33,406.63 472.43,429.11 472.35,457.50 C472.31,469.58 470.24,478.47 464.90,489.50 C453.09,513.85 432.81,526.91 402.00,530.00 C374.73,532.74 279.73,532.16 266.00,529.18 L 262.50 528.42 L 262.23 510.71 L 261.95 493.00 L 236.45 493.00 C216.53,493.00 210.83,493.28 210.44,494.29 C210.17,495.00 210.30,514.91 210.72,538.53 L 211.50 581.48 L 216.50 582.26 C230.79,584.50 292.17,585.33 345.00,584.00 ZM 271.00 482.91 C323.10,479.07 357.24,469.57 374.20,454.20 C396.04,434.41 408.05,417.27 410.45,402.48 L 411.10 398.47 L 400.80 396.48 C393.80,395.14 386.34,394.50 377.50,394.50 C361.65,394.50 358.77,395.63 347.83,406.15 C329.15,424.14 322.19,426.05 268.00,428.11 C233.47,429.41 167.31,428.77 164.19,427.10 C163.10,426.52 161.71,424.62 161.11,422.87 C160.33,420.65 160.00,392.33 160.00,327.85 C160.00,242.78 160.12,236.00 161.67,236.00 C163.85,236.00 174.75,242.02 181.32,246.85 C188.43,252.07 195.33,256.00 197.41,256.00 C199.02,256.00 199.12,254.06 198.82,228.75 C198.46,197.69 199.22,200.74 188.12,186.16 C173.93,167.52 168.02,156.08 163.27,138.07 C161.15,130.02 160.67,125.55 160.26,109.87 L 159.76 91.25 L 163.63 90.56 C170.70,89.30 253.36,88.78 272.27,89.88 C303.00,91.67 314.63,95.74 328.77,109.66 C334.54,115.34 336.87,118.57 340.01,125.28 C345.98,138.03 347.38,144.45 347.43,159.50 C347.48,173.48 346.36,179.74 342.19,188.95 C331.30,213.00 314.22,224.69 282.25,229.98 C278.26,230.64 275.00,231.63 275.00,232.19 C275.00,234.09 278.26,244.52 281.13,251.79 C288.70,270.95 301.47,282.98 318.55,287.05 C328.07,289.32 339.02,295.50 347.00,303.13 C365.32,320.62 379.65,324.63 400.26,318.03 C405.37,316.39 410.41,314.42 411.47,313.65 C413.23,312.36 413.28,311.88 412.08,307.87 C410.09,301.22 404.85,291.48 397.84,281.38 C389.85,269.89 386.65,266.39 375.23,256.63 C369.80,252.00 366.30,248.30 366.70,247.63 C367.06,247.01 371.27,240.43 376.04,233.00 C391.12,209.54 396.48,198.22 399.37,183.72 C404.47,158.19 400.31,126.74 388.50,101.50 C382.88,89.49 377.97,82.48 368.44,72.86 C345.46,49.67 312.50,37.73 261.00,33.92 C243.57,32.63 193.44,33.14 162.00,34.92 C152.93,35.43 137.13,36.16 126.90,36.54 L 108.30 37.23 L 107.76 258.37 C107.45,379.99 107.38,479.68 107.59,479.90 C108.25,480.60 153.45,483.02 182.50,483.92 C213.38,484.86 250.18,484.44 271.00,482.91 Z" fill="rgb(253,254,252)"/>
</g>
</svg>